<?xml version="1.0" standalone="no"?>
<!DOCTYPE svg PUBLIC "-//W3C//DTD SVG 20010904//EN"
 "http://www.w3.org/TR/2001/REC-SVG-20010904/DTD/svg10.dtd">
<svg version="1.0" xmlns="http://www.w3.org/2000/svg"
 width="283.000000pt" height="283.000000pt" viewBox="0 0 283.000000 283.000000"
 preserveAspectRatio="xMidYMid meet">
<metadata>
Created by potrace 1.11, written by Peter Selinger 2001-2013
</metadata>
<g transform="translate(0.000000,283.000000) scale(0.100000,-0.100000)"
fill="#000000" stroke="none">
<path d="M677 2554 c-2 -2 -51 -10 -112 -19 -11 -1 -27 -5 -35 -9 -8 -3 -28
-8 -44 -10 -16 -3 -66 -24 -111 -46 -169 -85 -297 -254 -330 -435 -2 -11 -7
-40 -12 -65 -9 -47 -9 -217 0 -260 3 -14 8 -35 11 -48 3 -13 8 -33 12 -45 10
-35 77 -191 84 -197 3 -3 17 -23 30 -45 13 -22 33 -52 44 -66 12 -14 32 -40
46 -59 25 -34 246 -253 484 -481 183 -176 429 -414 501 -484 114 -112 132
-125 175 -125 32 0 48 8 87 43 82 73 150 138 262 247 58 58 194 188 300 290
271 260 470 457 514 510 21 25 59 79 85 120 25 41 51 78 57 82 5 4 6 8 1 8 -5
0 -4 6 2 13 14 16 63 146 67 177 2 14 8 36 12 50 10 27 9 260 -2 300 -3 14 -8
36 -11 50 -3 14 -8 34 -11 45 -4 11 -8 25 -9 30 -7 31 -63 135 -79 147 -5 4
-6 8 -1 8 4 0 -21 28 -56 63 -75 73 -105 97 -118 97 -6 0 -10 5 -10 10 0 6 -5
10 -10 10 -6 0 -30 9 -53 21 -49 24 -51 24 -137 44 -149 33 -253 39 -345 17
-33 -7 -68 -15 -77 -17 -9 -2 -37 -13 -62 -23 -24 -11 -47 -18 -50 -14 -3 3
-6 0 -6 -6 0 -7 -5 -12 -10 -12 -6 0 -43 -21 -83 -47 -73 -48 -87 -58 -112
-81 -8 -7 -15 -11 -15 -9 0 3 -26 -19 -57 -49 -32 -29 -63 -54 -69 -54 -6 0
-22 10 -35 21 -13 12 -44 38 -69 58 -25 20 -47 38 -50 41 -15 15 -160 109
-190 123 -78 35 -130 56 -130 51 0 -2 -8 0 -18 5 -25 13 -95 23 -180 25 -40 1
-74 1 -75 0z"/>
</g>
</svg>
