<?xml version="1.0" standalone="no"?>
<!DOCTYPE svg PUBLIC "-//W3C//DTD SVG 20010904//EN"
 "http://www.w3.org/TR/2001/REC-SVG-20010904/DTD/svg10.dtd">
<svg version="1.0" xmlns="http://www.w3.org/2000/svg"
 width="283.000000pt" height="283.000000pt" viewBox="0 0 283.000000 283.000000"
 preserveAspectRatio="xMidYMid meet">
<metadata>
Created by potrace 1.11, written by Peter Selinger 2001-2013
</metadata>
<g transform="translate(0.000000,283.000000) scale(0.100000,-0.100000)"
fill="#000000" stroke="none">
<path d="M747 2484 c-1 -1 -20 -5 -42 -8 -122 -19 -151 -27 -230 -67 -51 -26
-80 -47 -150 -108 -54 -47 -129 -192 -139 -266 -2 -17 -8 -41 -13 -55 -11 -30
-10 -198 1 -260 10 -54 51 -171 75 -214 44 -77 83 -136 92 -136 5 0 9 -7 9
-15 0 -15 193 -212 444 -452 70 -68 129 -123 129 -123 1 0 98 -94 216 -209
223 -217 253 -239 304 -217 23 10 135 114 468 436 60 58 179 173 265 255 86
83 166 159 178 171 130 126 261 336 282 453 4 20 10 41 14 46 14 20 4 258 -14
330 -18 68 -66 170 -103 216 -82 101 -216 180 -348 204 -16 3 -46 8 -65 12
-68 12 -179 8 -265 -11 -104 -23 -267 -121 -400 -239 -45 -40 -46 -40 -115 23
-25 23 -57 49 -72 58 -16 9 -28 20 -28 24 0 4 -7 8 -15 8 -8 0 -15 4 -15 8 0
11 -144 86 -201 105 -25 9 -65 19 -90 23 -42 6 -167 13 -172 8z"/>
</g>
</svg>
